<?xml version="1.0" encoding="utf-8"?>
<!-- Generator: Adobe Illustrator 16.0.3, SVG Export Plug-In . SVG Version: 6.00 Build 0)  -->
<!DOCTYPE svg PUBLIC "-//W3C//DTD SVG 1.1//EN" "http://www.w3.org/Graphics/SVG/1.1/DTD/svg11.dtd">
<svg version="1.1" id="Capa_1" xmlns="http://www.w3.org/2000/svg" xmlns:xlink="http://www.w3.org/1999/xlink" x="0px" y="0px"
	 width="100px" height="100px" viewBox="0 0 100 100" enable-background="new 0 0 100 100" xml:space="preserve">
<g>
	<linearGradient id="SVGID_1_" gradientUnits="userSpaceOnUse" x1="-16.0498" y1="129.5137" x2="94.0318" y2="19.4321">
		<stop  offset="0" style="stop-color:#DDC294"/>
		<stop  offset="0.3054" style="stop-color:#9B7F6D"/>
		<stop  offset="0.6522" style="stop-color:#DDC294"/>
		<stop  offset="1" style="stop-color:#9B7F6D"/>
	</linearGradient>
	<path fill="url(#SVGID_1_)" d="M69.944,52.977L69.944,52.977c-1.712,0-3.103-1.371-3.103-3.063V37.123
		c0-1.691,1.391-3.063,3.103-3.063l0,0c1.714,0,3.103,1.372,3.103,3.063v12.792C73.047,51.605,71.658,52.977,69.944,52.977z"/>
	<linearGradient id="SVGID_2_" gradientUnits="userSpaceOnUse" x1="-34.313" y1="111.499" x2="75.6673" y2="1.5187">
		<stop  offset="0" style="stop-color:#DDC294"/>
		<stop  offset="0.3054" style="stop-color:#9B7F6D"/>
		<stop  offset="0.6522" style="stop-color:#DDC294"/>
		<stop  offset="1" style="stop-color:#9B7F6D"/>
	</linearGradient>
	<path fill="url(#SVGID_2_)" d="M33.667,58.469L33.667,58.469c1.714,0,3.103-1.37,3.103-3.063V31.63
		c0-1.692-1.389-3.063-3.103-3.063l0,0c-1.713,0-3.103,1.371-3.103,3.063v23.776C30.564,57.099,31.954,58.469,33.667,58.469z"/>
	<linearGradient id="SVGID_3_" gradientUnits="userSpaceOnUse" x1="-41.0146" y1="105.1826" x2="69.1793" y2="-5.0113">
		<stop  offset="0" style="stop-color:#DDC294"/>
		<stop  offset="0.3054" style="stop-color:#9B7F6D"/>
		<stop  offset="0.6522" style="stop-color:#DDC294"/>
		<stop  offset="1" style="stop-color:#9B7F6D"/>
	</linearGradient>
	<path fill="url(#SVGID_3_)" d="M20.649,49.879L20.649,49.879c1.713,0,3.102-1.371,3.102-3.062v-6.598
		c0-1.691-1.389-3.062-3.102-3.062l0,0c-1.714,0-3.103,1.371-3.103,3.062v6.598C17.546,48.508,18.935,49.879,20.649,49.879z"/>
	<g>
		<linearGradient id="SVGID_4_" gradientUnits="userSpaceOnUse" x1="-27.873" y1="117.8721" x2="82.2126" y2="7.7864">
			<stop  offset="0" style="stop-color:#DDC294"/>
			<stop  offset="0.3054" style="stop-color:#9B7F6D"/>
			<stop  offset="0.6522" style="stop-color:#DDC294"/>
			<stop  offset="1" style="stop-color:#9B7F6D"/>
		</linearGradient>
		<path fill="url(#SVGID_4_)" d="M57.541,18.098h-0.964c-1.447,0-2.621,1.158-2.621,2.587v4.96c0,1.325-1.087,2.4-2.432,2.4l0,0
			c-1.342,0-2.432-1.075-2.432-2.4V10.859c0-1.671-1.328-3.087-3.02-3.131c-1.751-0.044-3.185,1.344-3.185,3.062v65.388
			c0,1.672,1.328,3.089,3.021,3.131c1.752,0.044,3.184-1.344,3.184-3.062V61.393c0-1.326,1.09-2.4,2.432-2.4l0,0
			c1.345,0,2.432,1.074,2.432,2.4v4.961c0,1.428,1.174,2.586,2.621,2.586h0.964c1.448,0,2.62-1.158,2.62-2.586V20.685
			C60.161,19.256,58.989,18.098,57.541,18.098z M54.324,51.615c0,1.174-0.964,2.125-2.15,2.125l0,0
			c-1.188,0-2.151-0.951-2.151-2.125V34.673c0-1.173,0.964-2.124,2.151-2.124l0,0c1.187,0,2.15,0.951,2.15,2.124V51.615z"/>
	</g>
	<linearGradient id="SVGID_5_" gradientUnits="userSpaceOnUse" x1="-10.9751" y1="135.1699" x2="99.5224" y2="24.6724">
		<stop  offset="0" style="stop-color:#DDC294"/>
		<stop  offset="0.3054" style="stop-color:#9B7F6D"/>
		<stop  offset="0.6522" style="stop-color:#DDC294"/>
		<stop  offset="1" style="stop-color:#9B7F6D"/>
	</linearGradient>
	<ellipse fill="url(#SVGID_5_)" cx="80.676" cy="43.518" rx="2.906" ry="2.869"/>
</g>
<g>
	<path fill="#B49D7D" d="M11.102,94.498C11.034,94.432,11,94.352,11,94.26v-8.112c0-0.092,0.034-0.172,0.102-0.238
		c0.068-0.067,0.148-0.101,0.242-0.101h3.855c1.187,0,2.122,0.26,2.805,0.778c0.683,0.52,1.024,1.285,1.024,2.298
		c0,1.005-0.339,1.752-1.018,2.242c-0.679,0.489-1.616,0.734-2.812,0.734h-0.891v2.398c0,0.092-0.034,0.172-0.102,0.238
		c-0.068,0.067-0.148,0.101-0.242,0.101h-2.621C11.25,94.599,11.17,94.565,11.102,94.498z M15.135,89.538
		c0.152,0,0.288-0.057,0.407-0.17c0.119-0.112,0.178-0.282,0.178-0.509c0-0.192-0.047-0.359-0.14-0.502s-0.242-0.213-0.445-0.213
		h-0.891v1.394H15.135z"/>
	<path fill="#B49D7D" d="M20.071,94.498c-0.068-0.066-0.102-0.146-0.102-0.238v-8.112c0-0.092,0.034-0.172,0.102-0.238
		c0.068-0.067,0.148-0.101,0.242-0.101h2.544c0.093,0,0.174,0.033,0.242,0.101c0.068,0.066,0.102,0.146,0.102,0.238v5.877h3.524
		c0.093,0,0.174,0.033,0.242,0.101s0.102,0.146,0.102,0.238v1.896c0,0.092-0.034,0.172-0.102,0.238
		c-0.068,0.067-0.148,0.101-0.242,0.101h-6.412C20.219,94.599,20.139,94.565,20.071,94.498z"/>
	<path fill="#B49D7D" d="M27.316,94.517c-0.055-0.054-0.083-0.119-0.083-0.194c0-0.033,0.004-0.063,0.013-0.088l2.837-8.012
		c0.034-0.108,0.098-0.205,0.191-0.289c0.093-0.083,0.22-0.125,0.382-0.125h2.76c0.161,0,0.289,0.042,0.382,0.125
		c0.093,0.084,0.157,0.181,0.191,0.289l2.837,8.012c0.008,0.025,0.013,0.055,0.013,0.088c0,0.075-0.028,0.141-0.083,0.194
		c-0.056,0.055-0.121,0.082-0.197,0.082h-2.354c-0.254,0-0.42-0.104-0.496-0.313l-0.306-0.829h-2.735l-0.306,0.829
		c-0.076,0.209-0.242,0.313-0.496,0.313h-2.354C27.437,94.599,27.371,94.571,27.316,94.517z M31.317,91.007h1.438l-0.726-2.335
		L31.317,91.007z"/>
	<path fill="#B49D7D" d="M38.746,94.498c-0.068-0.066-0.102-0.146-0.102-0.238v-2.474l-2.862-5.589
		c-0.017-0.033-0.025-0.07-0.025-0.112c0-0.076,0.027-0.141,0.083-0.195c0.055-0.054,0.121-0.081,0.197-0.081h2.392
		c0.144,0,0.261,0.035,0.35,0.106s0.15,0.141,0.185,0.207l1.272,2.524l1.272-2.524c0.034-0.066,0.095-0.136,0.184-0.207
		c0.089-0.071,0.206-0.106,0.35-0.106h2.392c0.076,0,0.142,0.027,0.197,0.081c0.055,0.055,0.083,0.119,0.083,0.195
		c0,0.042-0.009,0.079-0.025,0.112l-2.863,5.589v2.474c0,0.092-0.034,0.172-0.102,0.238c-0.068,0.067-0.149,0.101-0.242,0.101
		h-2.494C38.895,94.599,38.814,94.565,38.746,94.498z"/>
	<path fill="#B49D7D" d="M47.575,94.498c-0.068-0.066-0.103-0.146-0.103-0.238v-8.112c0-0.092,0.034-0.172,0.103-0.238
		c0.067-0.067,0.148-0.101,0.241-0.101h2.01c0.238,0,0.42,0.112,0.548,0.339l1.845,3.014l1.845-3.014
		c0.127-0.227,0.309-0.339,0.547-0.339h2.01c0.093,0,0.174,0.033,0.241,0.101c0.068,0.066,0.103,0.146,0.103,0.238v8.112
		c0,0.092-0.034,0.172-0.103,0.238c-0.067,0.067-0.148,0.101-0.241,0.101h-2.303c-0.094,0-0.174-0.033-0.241-0.101
		c-0.068-0.066-0.103-0.146-0.103-0.238v-3.441l-0.839,1.356c-0.06,0.093-0.126,0.168-0.197,0.227
		c-0.072,0.059-0.164,0.088-0.273,0.088h-0.891c-0.11,0-0.202-0.029-0.273-0.088c-0.072-0.059-0.139-0.134-0.197-0.227l-0.84-1.356
		v3.441c0,0.092-0.034,0.172-0.102,0.238c-0.068,0.067-0.148,0.101-0.242,0.101h-2.303C47.724,94.599,47.643,94.565,47.575,94.498z"
		/>
	<path fill="#B49D7D" d="M59.399,93.864c-0.742-0.573-1.113-1.434-1.113-2.581v-5.136c0-0.092,0.034-0.172,0.103-0.238
		c0.067-0.067,0.147-0.101,0.241-0.101h2.493c0.094,0,0.174,0.033,0.242,0.101c0.067,0.066,0.102,0.146,0.102,0.238v5.086
		c0,0.318,0.078,0.559,0.235,0.722s0.393,0.245,0.706,0.245s0.549-0.082,0.706-0.245s0.235-0.403,0.235-0.722v-5.086
		c0-0.092,0.034-0.172,0.102-0.238c0.068-0.067,0.148-0.101,0.242-0.101h2.493c0.094,0,0.174,0.033,0.242,0.101
		c0.067,0.066,0.102,0.146,0.102,0.238v5.136c0,1.147-0.369,2.008-1.106,2.581c-0.738,0.573-1.739,0.86-3.003,0.86
		C61.148,94.725,60.142,94.438,59.399,93.864z"/>
	<path fill="#B49D7D" d="M69.284,94.36c-0.623-0.243-1.092-0.567-1.405-0.974c-0.314-0.406-0.479-0.852-0.497-1.337
		c0-0.076,0.028-0.141,0.083-0.195c0.056-0.054,0.121-0.081,0.197-0.081h2.417c0.119,0,0.214,0.015,0.286,0.044
		s0.159,0.086,0.261,0.169c0.246,0.193,0.561,0.289,0.941,0.289c0.289,0,0.52-0.031,0.693-0.094
		c0.174-0.063,0.261-0.148,0.261-0.258c0-0.15-0.114-0.266-0.343-0.346c-0.229-0.079-0.662-0.161-1.298-0.244
		c-2.188-0.285-3.282-1.206-3.282-2.763c0-0.562,0.163-1.062,0.489-1.501c0.327-0.439,0.783-0.78,1.368-1.023
		c0.585-0.242,1.26-0.364,2.022-0.364c0.797,0,1.497,0.134,2.1,0.402c0.602,0.268,1.063,0.604,1.387,1.011
		c0.322,0.406,0.491,0.802,0.509,1.187c0,0.075-0.028,0.141-0.083,0.194c-0.056,0.055-0.116,0.082-0.185,0.082h-2.544
		c-0.119,0-0.212-0.015-0.28-0.044c-0.067-0.029-0.145-0.082-0.229-0.157c-0.179-0.15-0.403-0.226-0.675-0.226
		c-0.407,0-0.61,0.117-0.61,0.352c0,0.125,0.1,0.23,0.299,0.313c0.199,0.084,0.57,0.159,1.113,0.227
		c0.848,0.108,1.528,0.271,2.042,0.489c0.513,0.218,0.886,0.509,1.119,0.873s0.35,0.822,0.35,1.375c0,0.595-0.182,1.115-0.547,1.563
		c-0.364,0.448-0.867,0.793-1.507,1.036c-0.641,0.242-1.364,0.364-2.17,0.364C70.669,94.725,69.907,94.603,69.284,94.36z"/>
	<path fill="#B49D7D" d="M76.822,94.498c-0.068-0.066-0.103-0.146-0.103-0.238v-8.112c0-0.092,0.034-0.172,0.103-0.238
		c0.067-0.067,0.148-0.101,0.241-0.101h2.596c0.093,0,0.174,0.033,0.241,0.101c0.068,0.066,0.102,0.146,0.102,0.238v8.112
		c0,0.092-0.033,0.172-0.102,0.238c-0.067,0.067-0.148,0.101-0.241,0.101h-2.596C76.971,94.599,76.89,94.565,76.822,94.498z"/>
	<path fill="#B49D7D" d="M82.382,93.889c-0.756-0.557-1.158-1.412-1.209-2.567c-0.009-0.227-0.013-0.595-0.013-1.105
		c0-0.519,0.004-0.896,0.013-1.13c0.051-1.122,0.462-1.97,1.234-2.543c0.771-0.573,1.78-0.86,3.027-0.86
		c0.764,0,1.465,0.113,2.105,0.339c0.641,0.227,1.162,0.58,1.564,1.062c0.403,0.481,0.608,1.086,0.617,1.814
		c0,0.075-0.027,0.141-0.082,0.194c-0.056,0.055-0.121,0.082-0.197,0.082h-2.596c-0.136,0-0.235-0.025-0.299-0.075
		c-0.063-0.051-0.121-0.146-0.172-0.289c-0.094-0.251-0.216-0.427-0.369-0.527c-0.152-0.101-0.348-0.15-0.585-0.15
		c-0.297,0-0.526,0.077-0.687,0.232c-0.161,0.154-0.246,0.416-0.255,0.784c-0.009,0.227-0.013,0.574-0.013,1.043
		s0.004,0.824,0.013,1.067c0.009,0.368,0.094,0.63,0.255,0.784c0.16,0.155,0.39,0.232,0.687,0.232c0.483,0,0.802-0.226,0.954-0.678
		c0.042-0.143,0.096-0.239,0.159-0.289s0.167-0.075,0.312-0.075h2.596c0.076,0,0.142,0.027,0.197,0.081
		c0.055,0.055,0.082,0.12,0.082,0.195c-0.009,0.729-0.214,1.333-0.617,1.814c-0.402,0.481-0.924,0.835-1.564,1.061
		c-0.641,0.227-1.342,0.34-2.105,0.34C84.154,94.725,83.136,94.446,82.382,93.889z"/>
</g>
</svg>
